<?xml version="1.0" encoding="utf-8"?>
<!-- Generator: Adobe Illustrator 24.2.3, SVG Export Plug-In . SVG Version: 6.00 Build 0)  -->
<svg version="1.1" id="Layer_1" xmlns="http://www.w3.org/2000/svg" xmlns:xlink="http://www.w3.org/1999/xlink" x="0px" y="0px"
	 viewBox="0 0 595.28 841.89" style="enable-background:new 0 0 595.28 841.89;" xml:space="preserve">
<style type="text/css">
	.st0{fill:#3576DF;}
	.st1{fill:#FFFFFF;}
</style>
<path class="st0" d="M363.34,369.67c-39.77,12.05-80.43,22.56-118.85,38.56c-6.86,2.86-13.64,5.91-20.3,9.2
	c-14.65,7.23-28.31,16.02-40.15,27.54c5.26-15.73,13.9-29.28,25.55-40.96c14.77-14.81,32.75-24.84,51.07-34.38
	c10.3-5.36,20.67-10.61,30.8-16.28c10.6-5.93,20.79-12.73,29.74-20.97c4.47-4.11,8.62-8.58,12.33-13.38
	c2.26-2.92,4.49-6.31,5.36-7.63c2.01-3.03,3.62-5.67,4.8-7.7c0.12,0.89,0.22,2.07,0.19,3.47c-0.02,0.89-0.09,2.09-0.41,3.77
	c-0.43,2.27-1.11,4.49-1.92,6.65c-1.71,4.59-4.13,8.88-6.64,13.06c-5.28,8.79-11.97,16.64-18.69,24.34
	c40.2-11.71,77.73-32.48,109.01-60.31c-9.68,24.04-32.23,40.01-53.65,54.6c39.56-11.68,77.63-28.41,113-49.64
	c-11.29,16.94-27.73,29.95-45.51,39.86c-17.79,9.91-37,16.93-56.13,23.91c9.05,27.69,5.02,59.98-12.86,82.98
	s-49.9,34.92-77.83,26.63c24.6,0.1,48.9-12.61,62.84-32.88S372.23,392.61,363.34,369.67z"/>
<path class="st1" d="M232.6,423.72c9.73-4.06,19.47-8.12,29.2-12.18c0.3-0.12,0.61-0.25,0.93-0.19c0.46,0.08,0.76,0.51,1.01,0.91
	c3,4.65,6.65,8.97,11.21,12.12c10.2,7.05,23.81,6.92,34.58,1.23c8.77-4.64,13.19-13.47,15.04-22.89c0.73-3.72,1.1-7.51,1.28-11.29
	c5.1-1.65,10.38-3.42,15.69-5.06c5.13-1.59,10.31-3.06,15.46-4.58c0.38-0.1,1.46,9.11,1.54,9.91c2.73,25.83-11.52,51.96-34.44,64.03
	c-2.38,1.25-4.85,2.35-7.38,3.28c-17.7,6.48-37.84,5.47-54.56-3.37C249.09,448.74,238.48,437.29,232.6,423.72z"/>
<path class="st0" d="M273.39,407.03c13.61-4.33,27.22-8.66,40.83-12.99c0.54-0.17,0.61,6.79,0.53,7.4
	c-1.85,13.38-17.71,20.13-29.57,15.59c-4.91-1.88-9.16-5.46-11.84-9.98C273.36,407.04,273.37,407.03,273.39,407.03z"/>
</svg>
